<svg id="svg2" xmlns="http://www.w3.org/2000/svg" viewBox="0 0 303.12 303.12">
  <defs>
    <style>
      .cls-1 {
        fill: #4dba87;
      }

      .cls-2 {
        fill: #435466;
      }
    </style>
  </defs>
  <title>logo</title>
  <g>
    <g>
      <path class="cls-1" d="M151.56,146.75C94.2,146.75,47.69,181,47.69,223.16s46.5,76.4,103.87,76.4,103.87-34.21,103.87-76.41S208.93,146.75,151.56,146.75Zm0,121.12c-38.86,0-70.36-20-70.36-44.72s31.51-44.72,70.36-44.72,70.36,20,70.36,44.72S190.42,267.87,151.56,267.87Z"/>
      <path class="cls-2" d="M92.07,138.12A59.51,59.51,0,0,1,129.21,83c6.9-2.8,22.35,8,22.35,8S167,80.17,173.92,83a59.51,59.51,0,0,1,37.14,55.15,63.58,63.58,0,0,1-2.8,17.52c8.85,4.29,17.1,9,23.79,15A86.75,86.75,0,0,0,208.91,73l-.1-.11C198,61.48,190.31,39,190.31,39s-3,8.69-10.09,8.69-7.28-23.24-7.28-23.24L169.19,27c.24-2.58-4.22-6.57-4.22-6.57s.94,13.61-5.63,4.69,13.61-21.6,13.61-21.6C146.42,8,133.17,33.29,130.22,36.89c-2.16,2.64-3.15-7.07-3.15-7.07a26.27,26.27,0,0,0-1.53,4.55c-.25,1-.49,2-1,3.55-1,3.46-1.22,3.94-1.94,4.9-2,2.62-3-2.52-3-2.52-1,.67-1.78,3.68-2.38,4.87C111,57.65,98.93,69.11,98.93,69.11h0A86.77,86.77,0,0,0,71.09,170.63c6.68-6,14.58-10.71,23.43-15A63.43,63.43,0,0,1,92.07,138.12Z"/>
    </g>
    <path class="cls-2" d="M260.54,131.13a37.33,37.33,0,0,0-19.47,5.45c.06,1.29.11,2.58.11,3.88A86.45,86.45,0,0,1,234.85,173c10.41,9.37,17.86,20.59,21.28,32.89a37.5,37.5,0,1,0,4.4-74.73Z"/>
    <path class="cls-2" d="M68.27,173h0a86.51,86.51,0,0,1-6.32-32.51c0-1.3.06-2.59.12-3.88A37.52,37.52,0,1,0,47,205.9C50.41,193.6,57.86,182.38,68.27,173Z"/>
  </g>
</svg>
